<?xml version="1.0" standalone="no"?>
<!DOCTYPE svg PUBLIC "-//W3C//DTD SVG 20010904//EN"
 "http://www.w3.org/TR/2001/REC-SVG-20010904/DTD/svg10.dtd">
<svg version="1.0" xmlns="http://www.w3.org/2000/svg"
 width="225.000000pt" height="225.000000pt" viewBox="0 0 225.000000 225.000000"
 preserveAspectRatio="xMidYMid meet">
<metadata>
Created by potrace 1.14, written by Peter Selinger 2001-2017
</metadata>
<g transform="translate(0.000000,225.000000) scale(0.100000,-0.100000)"
fill="#000000" stroke="none">
<path d="M230 1620 c0 -40 3 -71 6 -68 7 8 7 128 0 136 -4 3 -6 -28 -6 -68z"/>
<path d="M233 1410 c0 -25 2 -35 4 -22 2 12 2 32 0 45 -2 12 -4 2 -4 -23z"/>
<path d="M1470 1429 c-25 -4 -77 -12 -115 -17 -89 -12 -125 -30 -169 -88 -51
-67 -60 -101 -48 -192 7 -47 7 -103 2 -146 -6 -51 -5 -78 6 -108 16 -47 18
-81 5 -106 -6 -9 -17 -41 -26 -70 -18 -57 -26 -59 -45 -12 -7 16 -19 30 -27
30 -16 0 -16 -1 6 -85 6 -22 11 -57 11 -77 0 -31 4 -38 20 -38 11 0 20 7 20
15 0 9 14 53 32 98 20 52 32 102 33 138 3 75 53 175 156 311 45 59 194 192
274 245 36 24 63 48 60 53 -4 6 0 10 7 10 9 0 9 3 -2 10 -13 9 -13 10 0 11 8
0 3 4 -12 9 -46 14 -141 19 -188 9z"/>
<path d="M253 1355 c-16 -17 -17 -42 -3 -50 6 -4 8 -10 5 -15 -3 -5 -3 -21 1
-36 l7 -27 15 28 c11 22 16 25 23 14 6 -9 9 -10 9 -2 0 20 -22 27 -34 11 -9
-12 -11 -6 -13 28 -1 24 3 44 8 44 5 0 9 5 9 10 0 14 -13 12 -27 -5z"/>
<path d="M307 1228 c-10 -33 3 -43 51 -38 l47 4 -45 6 c-36 4 -44 9 -42 23 3
20 -4 23 -11 5z"/>
<path d="M271 1215 c0 -5 8 -26 19 -45 11 -19 19 -30 19 -25 0 6 -8 26 -19 45
-11 19 -19 31 -19 25z"/>
<path d="M333 1163 c9 -2 23 -2 30 0 6 3 -1 5 -18 5 -16 0 -22 -2 -12 -5z"/>
<path d="M331 1100 c13 -16 24 -28 27 -26 6 6 -29 56 -39 56 -5 0 0 -13 12
-30z"/>
<path d="M360 1119 c0 -5 5 -7 10 -4 6 3 10 8 10 11 0 2 -4 4 -10 4 -5 0 -10
-5 -10 -11z"/>
<path d="M401 1037 c2 -1 13 -9 24 -17 19 -14 19 -14 6 3 -7 9 -18 17 -24 17
-6 0 -8 -1 -6 -3z"/>
<path d="M461 959 c12 -9 29 -14 38 -11 9 3 12 1 7 -6 -7 -11 6 -17 28 -13 4
1 16 -4 25 -11 14 -11 14 -11 4 3 -7 9 -10 18 -7 21 3 3 -3 5 -13 5 -10 -1
-17 3 -16 10 2 7 -4 10 -12 7 -8 -3 -20 -2 -27 2 -7 4 -21 9 -31 9 -17 2 -16
0 4 -16z"/>
<path d="M578 933 c7 -3 16 -2 19 1 4 3 -2 6 -13 5 -11 0 -14 -3 -6 -6z"/>
<path d="M608 898 c5 -5 16 -8 23 -6 8 3 3 7 -10 11 -17 4 -21 3 -13 -5z"/>
<path d="M671 886 c2 -2 27 -6 54 -9 32 -4 43 -3 30 3 -19 8 -93 14 -84 6z"/>
<path d="M780 866 c0 -2 11 -6 25 -8 14 -3 25 -1 25 3 0 5 -11 9 -25 9 -14 0
-25 -2 -25 -4z"/>
<path d="M900 816 c0 -2 8 -10 18 -17 15 -13 16 -12 3 4 -13 16 -21 21 -21 13z"/>
<path d="M946 792 c-3 -6 -1 -14 5 -17 15 -10 25 3 12 16 -7 7 -13 7 -17 1z"/>
<path d="M984 745 c8 -8 18 -15 22 -15 3 0 1 7 -6 15 -7 8 -17 15 -22 15 -5 0
-3 -7 6 -15z"/>
</g>
</svg>
